<svg width="52" height="52" viewBox="0 0 52 52" fill="none" xmlns="http://www.w3.org/2000/svg">
<path d="M1.07057 49.3873L0.598618 49.2222H0.598618L1.07057 49.3873ZM2.59416 50.9261L2.42609 50.4552H2.42609L2.59416 50.9261ZM12.9865 47.2171L13.1546 47.688L12.9865 47.2171ZM13.8563 47.3076L14.1135 46.8789L13.8563 47.3076ZM4.75869 37.8147L4.31975 38.0541L4.75869 37.8147ZM4.82993 38.6417L4.35798 38.4765L4.82993 38.6417ZM2.21683 25.8871C2.21683 12.5484 13.0312 1.5 26.3569 1.5V0.5C12.466 0.5 1.21683 12.0091 1.21683 25.8871H2.21683ZM5.19764 37.5753C3.29763 34.0921 2.21683 30.1039 2.21683 25.8871H1.21683C1.21683 30.2765 2.34216 34.4287 4.31975 38.0541L5.19764 37.5753ZM1.54252 49.5524L5.30188 38.8068L4.35798 38.4765L0.598618 49.2222L1.54252 49.5524ZM2.42609 50.4552C1.88739 50.6475 1.34276 50.1234 1.54252 49.5524L0.598618 49.2222C0.129561 50.5629 1.40817 51.8803 2.76223 51.3971L2.42609 50.4552ZM12.8184 46.7462L2.42609 50.4552L2.76223 51.3971L13.1546 47.688L12.8184 46.7462ZM26.3569 50.2742C21.8881 50.2742 17.7035 49.0326 14.1135 46.8789L13.5991 47.7364C17.3386 49.9799 21.7002 51.2742 26.3569 51.2742V50.2742ZM50.497 25.8871C50.497 39.2258 39.6827 50.2742 26.3569 50.2742V51.2742C40.2479 51.2742 51.497 39.7651 51.497 25.8871H50.497ZM26.3569 1.5C39.6827 1.5 50.497 12.5484 50.497 25.8871H51.497C51.497 12.0091 40.2479 0.5 26.3569 0.5V1.5ZM13.1546 47.688C13.297 47.6372 13.4603 47.6531 13.5991 47.7364L14.1135 46.8789C13.7273 46.6471 13.2526 46.5912 12.8184 46.7462L13.1546 47.688ZM4.31975 38.0541C4.39282 38.1881 4.40517 38.3417 4.35798 38.4765L5.30188 38.8068C5.44562 38.3959 5.40144 37.9489 5.19764 37.5753L4.31975 38.0541Z" fill="white"/>
<path d="M16.7336 26.0129C16.7336 27.4594 15.5739 28.6234 14.1539 28.6234C12.7339 28.6234 11.5742 27.4594 11.5742 26.0129C11.5742 24.5664 12.7339 23.4023 14.1539 23.4023C15.5739 23.4023 16.7336 24.5664 16.7336 26.0129Z" fill="white" stroke="white"/>
<path d="M29.05 26.0129C29.05 27.4594 27.8903 28.6234 26.4703 28.6234C25.0503 28.6234 23.8906 27.4594 23.8906 26.0129C23.8906 24.5664 25.0503 23.4023 26.4703 23.4023C27.8903 23.4023 29.05 24.5664 29.05 26.0129Z" fill="white" stroke="white"/>
<path d="M41.3781 26.0129C41.3781 27.4594 40.2185 28.6234 38.7984 28.6234C37.3784 28.6234 36.2188 27.4594 36.2188 26.0129C36.2188 24.5664 37.3784 23.4023 38.7984 23.4023C40.2185 23.4023 41.3781 24.5664 41.3781 26.0129Z" fill="white" stroke="white"/>
</svg>
